<svg xmlns="http://www.w3.org/2000/svg" width="19" height="16">
    <path fill="#91A6BA" fill-rule="evenodd" d="M18.72 14.366a1.549 1.549 0 0 1-2.13.38l-6.295-4.27a1.49 1.49 0 0 1-.659-1.287 5.558 5.558 0 0 1-3.069 1.638 5.62 5.62 0 0 1-4.167-.88A5.414 5.414 0 0 1 .091 6.436a5.342 5.342 0 0 1 .898-4.087C2.736-.126 6.213-.747 8.738.966c2.293 1.556 3.025 4.509 1.834 6.892a1.552 1.552 0 0 1 1.465.149l6.296 4.27c.696.473.869 1.408.387 2.089zM9.389 4.775a3.773 3.773 0 0 0-1.61-2.448c-1.76-1.195-4.185-.763-5.405.963a3.764 3.764 0 0 0 .984 5.297c1.761 1.195 4.185.764 5.405-.963a3.726 3.726 0 0 0 .626-2.849z"/>
</svg>
